<?xml version="1.0" encoding="UTF-8"?>
<svg version="1.1" viewBox="0 0 1600 1600" width="100" height="100" xmlns="http://www.w3.org/2000/svg">
<path transform="translate(761,123)" d="m0 0h27l19 3 20 5 21 9 16 9 16 12 10 9 7 3 136 1 14 1 11 3 10 7 10 9 6 8 3 7 1 6v11l-2 15-7 27-10 35-7 26-9 32-16 57-10 34-4 13-1 11 4 9 14 17 11 14 26 32 33 42 9 12 16 21 10 14 13 18 24 34 32 48 15 23 15 24 24 40 8 14 13 23 11 20 8 16 18 37 11 26 11 29 12 36 8 32 4 22 2 18v47l-3 29-6 27-9 32-10 25-8 19-13 23-5 9-7 10-14 19-13 16-7 8-9 10-13 13-14 11-13 10-15 10-19 12-25 13-21 9-33 11-30 7-31 4-25 2-21 1h-486l-30-2-26-3-26-5-25-7-26-10-20-9-23-13-16-10-18-13-15-13-8-7-10-9-11-11-9-11-11-13-14-19-12-19-12-22-10-21-10-26-7-23-6-27-4-28-1-12v-38l3-27 5-25 7-27 8-25 10-27 11-26 11-24 12-25 11-21 12-22 8-14 10-17 16-27 15-25 10-15 7-11 28-42 14-20 9-13 12-17 9-12 8-11 12-17 12-15 20-26 14-18 10-13 14-17 11-13 9-11 7-9 5-6 2-4v-10l-6-24-15-52-14-50-16-57-12-44-3-15v-15l4-11 7-9 13-13 10-5 4-1 16-1 136-1 9-4 15-12 22-14 16-8 18-6 17-4zm2 100-13 4-11 7-13 10-14 14-9 12-5 3-11 1-103 1-4 1 1 10 7 31 15 53 9 34 4 12 4 7 7 1h299l4-5 7-20 6-19 11-41 7-24 6-26 1-5v-8l-5-1-110-1-6-4-8-9-7-8-13-13-13-9-12-5-19-3zm-104 276-17 1-5 3-8 9-7 9-13 16-10 13-12 16-14 17-9 11-10 12-11 14-3 4v2h-2l-14 19-9 12-20 26-13 19-12 16-18 26-10 15-13 19-14 21-10 16-9 14-17 28-12 20-11 20-8 14-16 30-11 23-13 29-16 40-6 19-7 28-4 26v33l4 25 6 26 7 20 16 33 13 21 14 18 9 10 17 17 11 9 17 13 24 14 16 8 19 8 22 6 22 4 21 2 17 1h485l33-2 26-4 19-5 22-8 24-12 21-13 18-13 15-13 17-17 8-10 6-8 10-14 9-16 8-16 10-24 5-19 5-24 2-20v-29l-2-19-4-19-9-31-13-34-9-21-9-20-19-38-16-30-12-21-13-22-16-26-12-19-11-17-18-27-17-25-12-17-13-18-10-14-12-16-14-19-10-13-12-16-14-18-11-13-7-9-12-15-13-17-12-15-21-27-10-10-5-2z" fill="#FEFEFE"/>
<path transform="translate(795,710)" d="m0 0h8l10 4 8 6 3 3 3 8 1 31 10 3 25 6 26 10 18 10 13 10 10 9 13 17 7 11 5 14v12l-6 12-14 14-10 4h-7l-10-4-14-10-11-9-15-13-9-7-14-9-12-6-14-4-14-2h-23l-16 3-17 8-12 9-8 13-4 10v17l4 12 7 11 4 4v2l4 2 17 9 24 8 30 7 37 8 24 7 26 11 15 9 12 9 7 6 8 10 8 13 5 11 6 21 1 8v26l-4 21-6 16-8 16-8 11-9 10-6 7-16 12-16 8-14 6-21 6-23 4-6 1v25l-2 9-7 12-8 7-6 3-10-1-12-7-7-6-5-12-1-5v-22l-5-2-17-2-22-5-26-9-17-9-14-10-10-9-8-8-11-16-7-16-2-7v-9l4-11 6-8 8-7 7-4h14l12 5 11 7 10 8 13 11 15 11 15 9 13 6 19 5 14 2h11l21-2 17-4 15-8 10-9 7-9 4-8 2-9v-13l-3-12-5-9-6-7-8-6-17-8-26-8-71-16-27-9-16-8-14-8-12-11-5-5-10-11-9-16-6-14-4-16-1-9v-20l4-25 6-17 9-17 9-12h2l2-4 9-9 15-11 16-9 13-5 19-5 25-4 4-2v-28l4-10 5-6 10-6z" fill="#fff"/>
</svg>
