<?xml version="1.0" encoding="UTF-8"?>
<svg version="1.1" viewBox="0 0 2048 2048" width="128" height="128" xmlns="http://www.w3.org/2000/svg">
<path transform="translate(1317,320)" d="m0 0h47l36 4 25 5 20 6 20 8 27 13 19 11 12 8 14 10 17 14 12 11 13 13 9 11 13 16 12 18 10 17 9 17 10 23 15 45 2 4 5 1h117l24 2 12 3 11 6 10 9 6 7 8 16 3 13v13l-3 16-7 14-8 10-5 5-7 6-8 4-13 2-15 1-42 1-90 1-5 23-10 27-17 36-8 14-17 25-9 12-9 11-14 15-8 7-14 13-18 13-19 12-19 11-31 14-21 7-26 7-22 4-29 3h-50l-29-4-25-6-26-9-25-11-23-12-19-12-15-11-14-12-10-9-13-12-9-10-11-13-14-19-11-18-11-20-14-33-8-25-5-18-70-1-714-1-14-2-12-6-9-8-9-13-6-13-3-13v-15l2-11 5-12 9-13 6-7 15-10 7-2 17-1 747-1 26-1 4-4 6-20 8-24 8-18 8-16 7-13 10-16 7-10 8-11 8-10 9-10 6-7 8-7 11-11 10-8 15-11 15-10 15-9 25-13 27-11 24-7 26-5zm11 128-21 3-16 4-19 7-19 10-14 9-14 11-12 11-10 10-10 13-8 13-8 14-10 23-5 18-4 21-1 10v31l3 22 6 22 6 16 11 21 9 13 10 13 16 17 17 14 19 12 16 8 14 6 16 5 12 3 25 3h11l17-2 25-5 21-7 21-10 21-14 16-13 7-6 7-8 9-11 10-15 13-24 6-17 6-24 2-14 1-27-1-17-3-19-8-28-10-21-10-17-13-17-12-13-11-10-18-13-19-11-18-8-15-5-22-5-17-2z" fill="#797979"/>
<path transform="translate(681,1088)" d="m0 0h40l31 3 24 4 23 6 21 8 26 12 25 14 22 15 10 8 11 9 13 12 11 11 7 8 13 16 15 22 10 17 8 16 8 17 9 25 9 26 2 6h700l56 1 25 1 15 2 12 6 12 11 8 11 5 12 2 8v23l-3 12-7 13-8 10-9 9-9 5-13 2-23 1-670 1-96 1-1 11-4 16-12 30-16 33-10 16-13 19-9 12-9 11-14 15-3 1v2h-2v2l-8 7-14 12-13 9-19 12-18 10-27 13-36 12-25 6-29 4-13 1h-48l-30-4-26-6-23-8-26-11-25-13-22-14-13-10-13-11-8-7-16-15-7-8-11-13-12-16-10-15-12-22-12-26-8-21-7-23-3-11-3-1h-128l-20-2-13-4-9-6-9-9-8-13-5-13-2-9v-15l3-13 4-10 10-15 8-7 13-8 7-2 11-1 26-1 113-1 4-8 6-19 9-26 12-25 9-17 8-13 9-13 8-11 8-10 9-10 6-7 8-7 11-11 14-11 17-12 15-10 14-8 16-8 23-10 24-8 22-5 29-4zm9 128-18 2-20 5-20 7-17 9-16 10-14 11-13 12-9 9-14 19-12 22-8 17-6 18-5 26-1 9v32l3 21 5 20 7 19 11 21 9 13 10 13 8 8 7 8 11 9 12 9 16 10 16 8 15 6 21 6 18 3 10 1h13l17-2 20-4 20-6 18-8 16-9 17-12 13-11 16-16 13-18 10-17 9-19 7-24 4-24v-44l-3-19-8-28-12-25-10-16-11-14-12-13-10-9-13-10-21-13-19-9-18-6-22-5-18-2z" fill="#797979"/>
</svg>
