<?xml version="1.0" encoding="UTF-8"?>
<svg version="1.1" viewBox="0 0 1600 1600" width="100" height="100" xmlns="http://www.w3.org/2000/svg">
<path transform="translate(1349,353)" d="m0 0 5 1 10 9 7 8 27 27 8 7 21 21 8 7 8 10v5l-7 9-80 80-5 6-8 7-10 11h-2v2l-5 4-7 8-8 7-7 8-7 7h-2l-2 4-12 12h-2l-2 4-28 28h-2l-2 4-12 12h-2l-2 4-12 12h-2l-2 4-12 12h-2l-2 4-12 12h-2l-2 4-12 12h-2l-2 4-60 60h-2l-2 4-12 12h-2l-2 4-28 28h-2l-2 4-12 12h-2l-2 4-12 12h-2l-2 4-12 12h-2l-2 4-12 12h-2l-2 4-28 28h-2l-2 4-12 12h-2l-2 4-12 12h-2l-2 4-12 12h-2l-2 4-12 12h-2l-2 4-12 12h-2l-2 4-12 12h-2l-2 4-56 56h-2v2l-5 4-7 8-4 2v2l-80 80-5 4-7 8-10 9-7 8-8 7-5 6h-2v2l-8 7-4 5h-2v2h-2v2l-8 7-10 11h-2v2h-2l-2 4-11 11-7 8-3 3-4-1-363-363-8-7-7-8 3-5 5-6h2l2-4 20-20h2v-2l8-7 4-5 8-7 17-17 9-11 7-7 2-3 6 1 7 7 2 1v2l4 2 237 237 8 7 4 5 3 2v2l3 1 7 8 9 8 4-1 6-5 6-8 16-15 12-12 7-8 9-8 7-8 10-9 6-7 8-7 7-8 8-7 10-11 8-7 9-10 7-6 7-8 9-8 7-8 8-7 7-8 20-20 5-4 7-8 9-8 7-8 10-9 7-8 9-8 7-8 8-7 7-8 6-5 7-8 7-7 5-4 7-8 10-9 7-8 9-8 7-8 9-8 7-8 9-8 7-8 9-8 7-8 9-8 7-8 9-8 7-8 9-8 7-8 9-8 7-8 9-8 7-8 9-8 7-8 9-8 7-8 9-8 7-8 9-8 7-8 9-8 7-8 9-8 7-8 9-8 7-8 9-8 7-8 9-8 7-8 9-8 7-8 9-8 7-8 8-7 7-8 52-52 6-5 7-8 15-15 7-8z" fill="#0B6E3E"/>
</svg>
