<?xml version="1.0" encoding="UTF-8"?>
<svg version="1.1" viewBox="0 0 1600 1600" width="100" height="100" xmlns="http://www.w3.org/2000/svg">
<path transform="translate(398,331)" d="m0 0 14 2 13 5 10 6 13 10 17 16 104 104 6 5 7 8 5 4 7 8 7 7 6 5 7 8 5 4 7 8 7 7 6 5 7 8 9 8 7 8 5 4 7 8 58 58 7 6 28 28 7 8 10 9 7 8 8 6 4-1 8-7 7-8 7-6 7-8 6-5 7-8 222-222 1-2h2l2-4h2l1-3 5-5h2l2-4 8-8h2l2-4 28-28h2l2-4 8-8h2v-2l8-7 10-9 16-11 9-4 14-3 12 1 12 3 16 8 10 7 7 7 8 13 5 12 2 12-1 16-4 13-8 12-13 16-12 13-9 9-3 4h-2v2l-8 7-9 10-3 1v2l-34 34h-2l-2 4-24 24h-2l-1 3-13 13h-2v2l-6 5-7 8-8 7-8 9-8 7-8 9-8 7-5 6h-2v2l-8 7-5 6-8 7-12 13-8 7-7 8-7 6-7 8-63 63-8 7-24 24-2 3 1 4 40 40 7 6 5 6 8 7 12 13 176 176 6 5 6 7 8 7 8 9 6 5 7 8 35 35 8 7 12 13 7 8 10 14 7 14 2 8v17l-3 12-7 14-12 14-8 8-14 7-19 4h-12l-13-3-14-7-14-12-13-12-10-10v-2l-4-2v-2l-4-2-92-92v-2l-4-2-8-8v-2l-4-2v-2l-4-2-8-8v-2l-4-2v-2l-4-2-175-175-7-8-4-5-6-2-9 7-8 8-8 7-17 17-7 8-33 33-8 7-7 8-7 6-7 8-100 100h-2l-1 3-29 29h-2v2l-5 4-7 8-10 9-6 7-8 7-7 8-23 23h-2l-2 4-13 12-18 18-8 7-13 10-10 5-15 4-12 1-15-2-14-5-11-8-8-8-9-14-4-9-3-11-1-13 3-13 4-10 9-14 11-13 6-7h2l2-4 4-4h2l2-4h2l2-4 4-4h2v-2l7-6 3-4h2l2-4 8-7 4-5h2l2-4 8-7 4-5h2l2-4 8-7 4-5h2l2-4 8-7 7-8 8-7 131-131 7-8 3-3h2l2-4 56-56h2v-2l8-7 17-16 5-5-1-4-167-167v-2l-4-2v-2l-4-2-8-8v-2l-4-2v-2l-4-2-8-8v-2l-4-2v-2l-4-2-135-135-9-11-9-12-7-12-4-13v-15l5-17 7-13 9-11 13-10 12-6z" fill="#DD1017"/>
<path transform="translate(334,1213)" d="m0 0 5 2 12 6 4 5 11 7 3 3 5 3 12 3 3 3 4-2 10 1 3-1 5 2 4 4v4l2 10-16 3-16-1-18-6-11-8-8-8-9-14-4-9z" fill="#F71219"/>
<path transform="translate(1129,1220)" d="m0 0 9 5v2h2v2l5 2 13 8 9 3 13 8 7 4 12 3 5 3v4h6v1l-6 1h-12l-13-3-14-7-14-12-13-12-10-10z" fill="#F7161D"/>
<path transform="translate(1252,1194)" d="m0 0h5l2 5 6 5 2-4-1 13-5 13-7 11-9 10-6 1-2-2 3-2h3l2-6 4-4h3l1-11h2v-2l2-1-2-4-5 5-7 2-1 4-1 2-5 1-1-2 1-2-2-1 3-5h2l2-5 1-2 5-2 2-5 2 3 1 3v-2l-1-5 1-5h-2l-2 3v-7z" fill="#F61219"/>
<path transform="translate(522,1168)" d="m0 0 2 1-15 16-20 20h-2l-2 4-13 12-18 18-8 7-12 9v-3h2v-2l5-5h2l2-4 5-5 10-9 3-5 8-7 12-12 8-7 4-6 11-9 4-1 1-3h2l2-4z" fill="#F7171E"/>
<path transform="translate(1195,331)" d="m0 0 12 1 5 1-1 5-4 1-5-1v2l-15 4h-8l-7 1-4-3 4-4 9-4z" fill="#F51118"/>
<path transform="translate(458,1185)" d="m0 0 2 1-1 4-2 3v6l-3 2-6 1-2 2v3l2 1h-4v2h-3v2l-5 1-5-1h-3l-2 6-6-3-7 1h-3l2-2 11-3 3-3 5 1 1-3 10-7 2-1 2-6 9-3 2-1z" fill="#F61017"/>
<path transform="translate(338,421)" d="m0 0 4 4 6 9v2l3 1 1 3h3l1 5 5 2 7 8 10 11 8 7 3 4 3 5 7 6 4 4 1 5-7-6-36-36-9-11-9-12-5-8z" fill="#F7141B"/>
<path transform="translate(1239,450)" d="m0 0 2 1-12 13-9 9-3 4h-2v2l-8 7-9 10-3 1v2l-12 12v-3l4-7 7-6 4-5 3-5 6-4 4-4h2l2-6 8-6 3-1v-2l5-5h2l1-4z" fill="#F71B22"/>
<path transform="translate(559,1123)" d="m0 0 2 1v2h-2v2h-2l-1 4-8 6-1 2h-2v2h-2l-2 4h-2l-1 3-7 4-11 11h-3v2l-4 1 2-4 3-4 5-3 8-7 6-7h2v-2l8-7 6-3z" fill="#F71118"/>
<path transform="translate(336,1178)" d="m0 0h1l2 9 2 2v3l3 1v2l-10 1-2-3 2-10z" fill="#F61017"/>
<path transform="translate(1185,333)" d="m0 0h5v2l-10 4h-3l-1 2-5 1-1-3 11-5z" fill="#E1131A"/>
<path transform="translate(381,334)" d="m0 0h5v3h-2l-1 2-5 1-2 1-1-1-3-1 3-3z" fill="#F62026"/>
<path transform="translate(1162,518)" d="m0 0 3 1-1 4-5 4h-3l2-6 4-1z" fill="#F71118"/>
</svg>
